<?xml version="1.0" standalone="no"?>
<!DOCTYPE svg PUBLIC "-//W3C//DTD SVG 20010904//EN"
 "http://www.w3.org/TR/2001/REC-SVG-20010904/DTD/svg10.dtd">
<svg version="1.0" xmlns="http://www.w3.org/2000/svg"
 width="138.000000pt" height="138.000000pt" viewBox="0 0 138.000000 138.000000"
 preserveAspectRatio="xMidYMid meet">
<metadata>
Created by potrace 1.14, written by Peter Selinger 2001-2017
</metadata>
<g transform="translate(0.000000,138.000000) scale(0.100000,-0.100000)"
fill="#000000" stroke="none">
<path d="M535 1053 c-86 -12 -240 -57 -312 -93 -94 -47 -174 -118 -203 -182
-23 -52 -21 -138 4 -187 63 -120 264 -227 488 -259 83 -11 326 -8 398 6 220
43 398 148 450 264 26 60 21 142 -13 200 -55 94 -195 178 -372 224 -83 22
-126 26 -255 28 -85 2 -168 1 -185 -1z"/>
</g>
</svg>
